<svg preserveAspectRatio="none" overflow="visible" style="display: block;" width="18.6667" height="18.6667" viewBox="0 0 18.6667 18.6667" fill="none" xmlns="http://www.w3.org/2000/svg">
<path id="Icon" d="M14.3334 1L17.6667 4.33333M1.00002 17.6667L2.06369 13.7666C2.13309 13.5121 2.16778 13.3849 2.22105 13.2662C2.26834 13.1609 2.32646 13.0608 2.39445 12.9674C2.47103 12.8623 2.56428 12.7691 2.75078 12.5826L11.362 3.9714C11.527 3.8064 11.6095 3.72389 11.7046 3.69298C11.7883 3.66579 11.8784 3.66579 11.9621 3.69298C12.0573 3.72389 12.1398 3.8064 12.3048 3.9714L14.6953 6.36193C14.8603 6.52694 14.9428 6.60944 14.9737 6.70458C15.0009 6.78826 15.0009 6.87841 14.9737 6.96209C14.9428 7.05723 14.8603 7.13973 14.6953 7.30474L6.08411 15.9159C5.89762 16.1024 5.80437 16.1957 5.69926 16.2722C5.60593 16.3402 5.50579 16.3983 5.40045 16.4456C5.28181 16.4989 5.15459 16.5336 4.90014 16.603L1.00002 17.6667Z" stroke="#171717" stroke-width="2" stroke-linecap="round" stroke-linejoin="round"/>
</svg>
